<svg xmlns="http://www.w3.org/2000/svg" viewBox="0 0 480 360" fill="none"><path d="M143 290V143a116 116 0 0 1 232 0v147" fill="#e5efe9"/><g stroke="#123e35" stroke-width="3" stroke-linejoin="round"><rect x="69" y="126" width="231" height="180" rx="7" fill="#fff"/><path d="M69 171h231v-38a7 7 0 0 0-7-7H76a7 7 0 0 0-7 7z" fill="#c6a35b"/><path d="M112 111v32m145-32v32M96 199h27m28 0h27m28 0h27m28 0h16M96 233h27m28 0h27m28 0h27M96 266h27m28 0h27" stroke-linecap="round"/><circle cx="303" cy="254" r="66" fill="#e5efe9"/><circle cx="303" cy="254" r="54" fill="#f5f8f6"/><path d="M303 218v38l26 15" stroke-linecap="round"/><path d="M303 207v7m0 80v7m47-47h-7m-80 0h-7"/><path d="M51 332h369"/></g><path d="m365 86 8-8m16 22h12m-24 15 8 8" stroke="#c6a35b" stroke-width="3" stroke-linecap="round"/></svg>
