<svg xmlns="http://www.w3.org/2000/svg" viewBox="0 0 400 300" fill="none"><title>AJK NILAM</title><rect x="8" y="8" width="384" height="284" rx="38" fill="#eee5d9"/><circle cx="325" cy="52" r="29" fill="#fffdf6" opacity=".65"/><g stroke="#244c40" stroke-width="4" stroke-linecap="round" stroke-linejoin="round"><circle cx="200" cy="73" r="26" fill="#c79370"/><circle cx="109" cy="113" r="24" fill="#c79370"/><circle cx="291" cy="113" r="24" fill="#c79370"/><path d="M152 160v-24a48 38 0 0 1 96 0v24M63 205v-35a46 38 0 0 1 92 0v35m90 0v-35a46 38 0 0 1 92 0v35" fill="#8aaa92"/><path d="M114 196q43-25 86-5 43-20 86 5v67q-43-18-86 0-43-18-86 0z" fill="#fffdf6"/><path d="M200 192v71M138 221h34m56 0h34"/></g></svg>